<mxfile host="app.diagrams.net" modified="2021-01-22T03:44:48.505Z" agent="5.0 (Macintosh; Intel Mac OS X 10_11_6) AppleWebKit/537.36 (KHTML, like Gecko) Chrome/87.0.4280.141 Safari/537.36" etag="A49r-XJBj66S9PQfdxeH" version="14.2.4" type="github">
  <diagram id="NBLubFRgcnelkqi6G6Ap" name="Page-1">
    <mxGraphModel dx="786" dy="1130" grid="1" gridSize="10" guides="1" tooltips="1" connect="1" arrows="1" fold="1" page="1" pageScale="1" pageWidth="827" pageHeight="1169" math="0" shadow="0">
      <root>
        <mxCell id="0" />
        <mxCell id="1" parent="0" />
        <mxCell id="mOR-KWMF5xc5dZ-B3QXL-1" value="" style="whiteSpace=wrap;html=1;aspect=fixed;fillColor=#f5f5f5;fontColor=#333333;strokeColor=none;" vertex="1" parent="1">
          <mxGeometry x="70" y="46" width="664" height="664" as="geometry" />
        </mxCell>
        <mxCell id="mOR-KWMF5xc5dZ-B3QXL-16" style="edgeStyle=orthogonalEdgeStyle;shape=flexArrow;rounded=1;orthogonalLoop=1;jettySize=auto;html=1;shadow=0;startArrow=none;fontSize=21;startFill=0;" edge="1" parent="1" source="mOR-KWMF5xc5dZ-B3QXL-2" target="mOR-KWMF5xc5dZ-B3QXL-3">
          <mxGeometry relative="1" as="geometry" />
        </mxCell>
        <mxCell id="mOR-KWMF5xc5dZ-B3QXL-21" style="edgeStyle=orthogonalEdgeStyle;shape=flexArrow;rounded=1;orthogonalLoop=1;jettySize=auto;html=1;entryX=0;entryY=0.5;entryDx=0;entryDy=0;shadow=0;startArrow=block;startFill=0;fontSize=21;" edge="1" parent="1" source="mOR-KWMF5xc5dZ-B3QXL-2" target="mOR-KWMF5xc5dZ-B3QXL-5">
          <mxGeometry relative="1" as="geometry" />
        </mxCell>
        <mxCell id="mOR-KWMF5xc5dZ-B3QXL-2" value="&lt;font style=&quot;font-size: 15px&quot;&gt;模型&lt;/font&gt;" style="rounded=0;whiteSpace=wrap;html=1;fillColor=#fff2cc;strokeColor=#d6b656;" vertex="1" parent="1">
          <mxGeometry x="354" y="140" width="120" height="60" as="geometry" />
        </mxCell>
        <mxCell id="mOR-KWMF5xc5dZ-B3QXL-17" style="edgeStyle=orthogonalEdgeStyle;shape=flexArrow;rounded=1;orthogonalLoop=1;jettySize=auto;html=1;entryX=0.5;entryY=0;entryDx=0;entryDy=0;shadow=0;startArrow=none;startFill=0;fontSize=21;" edge="1" parent="1" source="mOR-KWMF5xc5dZ-B3QXL-3" target="mOR-KWMF5xc5dZ-B3QXL-4">
          <mxGeometry relative="1" as="geometry" />
        </mxCell>
        <mxCell id="mOR-KWMF5xc5dZ-B3QXL-3" value="&lt;font style=&quot;font-size: 15px&quot;&gt;模型&lt;/font&gt;" style="rounded=0;whiteSpace=wrap;html=1;fillColor=#fff2cc;strokeColor=#d6b656;" vertex="1" parent="1">
          <mxGeometry x="354" y="260" width="120" height="60" as="geometry" />
        </mxCell>
        <mxCell id="mOR-KWMF5xc5dZ-B3QXL-20" style="shape=flexArrow;rounded=1;orthogonalLoop=1;jettySize=auto;html=1;entryX=0.5;entryY=0;entryDx=0;entryDy=0;shadow=0;startArrow=none;startFill=0;fontSize=21;" edge="1" parent="1" source="mOR-KWMF5xc5dZ-B3QXL-4" target="mOR-KWMF5xc5dZ-B3QXL-7">
          <mxGeometry relative="1" as="geometry" />
        </mxCell>
        <mxCell id="mOR-KWMF5xc5dZ-B3QXL-22" style="edgeStyle=none;shape=flexArrow;rounded=1;orthogonalLoop=1;jettySize=auto;html=1;entryX=0.5;entryY=0;entryDx=0;entryDy=0;shadow=0;startArrow=none;startFill=0;fontSize=21;" edge="1" parent="1" source="mOR-KWMF5xc5dZ-B3QXL-4" target="mOR-KWMF5xc5dZ-B3QXL-6">
          <mxGeometry relative="1" as="geometry" />
        </mxCell>
        <mxCell id="mOR-KWMF5xc5dZ-B3QXL-4" value="&lt;font style=&quot;font-size: 15px&quot;&gt;模型&lt;/font&gt;" style="rounded=0;whiteSpace=wrap;html=1;fillColor=#fff2cc;strokeColor=#d6b656;" vertex="1" parent="1">
          <mxGeometry x="354" y="390" width="120" height="60" as="geometry" />
        </mxCell>
        <mxCell id="mOR-KWMF5xc5dZ-B3QXL-5" value="&lt;span style=&quot;font-size: 15px&quot;&gt;标签&lt;/span&gt;" style="rounded=0;whiteSpace=wrap;html=1;fillColor=#fff2cc;strokeColor=#d6b656;" vertex="1" parent="1">
          <mxGeometry x="550" y="140" width="120" height="60" as="geometry" />
        </mxCell>
        <mxCell id="mOR-KWMF5xc5dZ-B3QXL-6" value="&lt;font style=&quot;font-size: 15px&quot;&gt;模型&lt;/font&gt;" style="rounded=0;whiteSpace=wrap;html=1;fillColor=#fff2cc;strokeColor=#d6b656;" vertex="1" parent="1">
          <mxGeometry x="234" y="530" width="120" height="60" as="geometry" />
        </mxCell>
        <mxCell id="mOR-KWMF5xc5dZ-B3QXL-7" value="&lt;font style=&quot;font-size: 15px&quot;&gt;模型&lt;/font&gt;" style="rounded=0;whiteSpace=wrap;html=1;fillColor=#fff2cc;strokeColor=#d6b656;" vertex="1" parent="1">
          <mxGeometry x="474" y="525" width="120" height="60" as="geometry" />
        </mxCell>
        <mxCell id="mOR-KWMF5xc5dZ-B3QXL-15" style="rounded=0;orthogonalLoop=1;jettySize=auto;html=1;fontSize=21;edgeStyle=orthogonalEdgeStyle;shape=flexArrow;startArrow=block;" edge="1" parent="1" source="mOR-KWMF5xc5dZ-B3QXL-8" target="mOR-KWMF5xc5dZ-B3QXL-2">
          <mxGeometry relative="1" as="geometry" />
        </mxCell>
        <mxCell id="mOR-KWMF5xc5dZ-B3QXL-8" value="" style="rounded=0;whiteSpace=wrap;html=1;fillColor=#ffe6cc;strokeColor=#d79b00;" vertex="1" parent="1">
          <mxGeometry x="170" y="140" width="80" height="325" as="geometry" />
        </mxCell>
        <mxCell id="mOR-KWMF5xc5dZ-B3QXL-9" value="离线计算&lt;br style=&quot;font-size: 27px;&quot;&gt;" style="text;html=1;strokeColor=none;fillColor=none;align=center;verticalAlign=middle;whiteSpace=wrap;rounded=0;fontSize=27;" vertex="1" parent="1">
          <mxGeometry x="110" y="70" width="110" height="20" as="geometry" />
        </mxCell>
        <mxCell id="mOR-KWMF5xc5dZ-B3QXL-10" value="调度中心" style="text;html=1;strokeColor=none;fillColor=none;align=center;verticalAlign=middle;whiteSpace=wrap;rounded=0;fontSize=21;" vertex="1" parent="1">
          <mxGeometry x="190" y="195" width="40" height="190" as="geometry" />
        </mxCell>
      </root>
    </mxGraphModel>
  </diagram>
</mxfile>
